<svg viewBox="233.295 184.129 29.916 23.033" width="29.916" height="23.033" xmlns="http://www.w3.org/2000/svg">
  <path d="M 249.983 194.102 C 250.443 195.722 250.363 197.322 249.963 198.582 C 249.543 199.862 248.703 200.762 247.663 201.062 C 247.503 201.122 247.403 201.122 247.263 201.122 C 247.203 201.142 247.143 201.142 247.083 201.142 C 247.023 201.162 246.943 201.162 246.863 201.162 L 240.063 201.162 L 242.283 206.662 C 242.303 206.802 242.223 206.922 242.143 207.002 C 242.063 207.102 241.903 207.162 241.803 207.162 L 238.783 207.162 C 238.683 207.162 238.523 207.102 238.443 207.002 C 238.363 206.922 238.283 206.802 238.303 206.662 L 237.303 201.162 L 236.083 201.162 L 236.063 201.142 C 235.563 201.202 234.983 200.962 234.523 200.522 C 234.063 200.082 233.643 199.442 233.463 198.642 C 233.223 197.842 233.263 197.082 233.443 196.442 C 233.623 195.822 234.023 195.362 234.503 195.142 L 234.523 195.122 L 243.523 189.722 C 243.623 189.662 243.703 189.622 243.763 189.562 C 243.823 189.522 243.903 189.482 244.003 189.442 C 244.163 189.362 244.283 189.322 244.503 189.262 C 245.543 188.962 246.743 189.362 247.723 190.242 C 248.703 191.122 249.563 192.482 249.983 194.102 Z M 247.403 200.082 L 247.383 200.082 C 247.783 199.982 248.123 199.742 248.423 199.382 C 249.003 198.682 249.283 197.622 249.283 196.342 C 249.283 195.702 249.183 195.042 249.003 194.362 C 248.663 193.002 247.983 191.862 247.223 191.122 C 246.463 190.382 245.543 190.022 244.763 190.242 C 243.943 190.462 243.363 191.202 243.063 192.242 C 242.743 193.282 242.783 194.602 243.123 195.962 C 243.503 197.322 244.123 198.462 244.923 199.202 C 245.703 199.942 246.543 200.302 247.403 200.082 Z M 244.863 193.002 C 245.083 192.962 245.283 192.982 245.483 193.042 C 245.863 193.202 246.243 193.522 246.503 194.042 C 246.763 194.562 246.923 195.242 246.923 195.822 C 246.923 196.122 246.883 196.382 246.803 196.622 C 246.623 197.102 246.363 197.462 245.943 197.562 C 245.603 197.662 245.143 197.502 244.803 197.162 C 244.463 196.822 244.163 196.302 244.023 195.662 C 243.843 195.042 243.903 194.422 244.043 193.942 C 244.183 193.462 244.523 193.102 244.863 193.002 Z" fill="#333333"></path>
  <g class="latir" transform="matrix(1, 0, 0, 1, 224.266556, 178.266815)">
    <path fill-rule="evenodd" clip-rule="evenodd" d="M33.3727 6.07171C33.8092 6.41004 33.8888 7.03818 33.5505 7.47471L29.8749 12.2171C29.5366 12.6536 28.9084 12.7332 28.4719 12.3949C28.0354 12.0565 27.9558 11.4284 28.2941 10.9919L31.9697 6.24951C32.3081 5.81299 32.9362 5.73338 33.3727 6.07171Z" fill="#333333"></path>
    <path fill-rule="evenodd" clip-rule="evenodd" d="M38.9358 19.9472C38.861 20.4944 38.3568 20.8774 37.8096 20.8027L31.8648 19.9907C31.3176 19.916 30.9346 19.4118 31.0094 18.8646C31.0841 18.3174 31.5883 17.9344 32.1355 18.0091L38.0803 18.8211C38.6275 18.8958 39.0105 19.4 38.9358 19.9472Z" fill="#333333"></path>
    <path fill-rule="evenodd" clip-rule="evenodd" d="M37.4801 12.6217C37.6889 13.1329 37.4438 13.7167 36.9325 13.9256L31.3782 16.1948C30.8669 16.4037 30.2831 16.1585 30.0743 15.6473C29.8654 15.136 30.1105 14.5522 30.6218 14.3433L36.1761 12.0741C36.6874 11.8653 37.2712 12.1104 37.4801 12.6217Z" fill="#333333"></path>
  </g>
</svg>