<?xml version="1.0" encoding="UTF-8" standalone="no"?>
<svg width="60px" height="30px" viewBox="0 0 60 30" version="1.1" xmlns="http://www.w3.org/2000/svg" xmlns:xlink="http://www.w3.org/1999/xlink">
    <!-- Generator: Sketch 3.8.3 (29802) - http://www.bohemiancoding.com/sketch -->
    <title>wapuu</title>
    <desc>Created with Sketch.</desc>
    <g id="wapuu" stroke="none" stroke-width="1" fill="none" fill-rule="evenodd">        
        <path d="M11.303787,21.887871 L11.303787,21.887871 C10.1435503,21.887871 9.28473373,21.1526452 9.06248521,19.9689032 C8.91798817,19.1981935 9.19242604,18.3472903 9.83502959,17.5730323 C10.6697041,16.568129 11.9872189,15.8385806 12.9678107,15.8385806 C13.1886391,15.8385806 13.391716,15.8747742 13.5710059,15.9464516 C14.2231953,16.2072581 14.7110059,16.8413548 14.8757396,17.6425806 C15.0969231,18.7180968 14.7202367,19.8688387 13.8678107,20.7204516 C13.1257988,21.4624194 12.1910059,21.887871 11.303787,21.887871 L11.303787,21.887871 L11.303787,21.887871 L11.303787,21.887871 Z M12.9678107,16.9030968 C12.3944379,16.9030968 11.3471006,17.4190323 10.6547929,18.2529032 C10.4020118,18.5577097 9.99443787,19.1602258 10.1098225,19.7730323 C10.2727811,20.6409677 10.8489941,20.8233548 11.303787,20.8233548 C11.9016568,20.8233548 12.5786982,20.5036452 13.1147929,19.9674839 C13.7130178,19.3695806 13.9814201,18.5807742 13.8326627,17.8565484 C13.740355,17.4069677 13.4946746,17.0624194 13.175503,16.9350323 C13.1233136,16.9140968 13.0515976,16.9030968 12.9678107,16.9030968 L12.9678107,16.9030968 L12.9678107,16.9030968 L12.9678107,16.9030968 Z" id="hand-right-outline" fill="#333"></path>                        
        <path d="M 57.999 4.688 C 57.742 4.624 57.129 4.584 54.874 4.584 C 54.091 4.584 53.201 4.588 52.254 4.593 C 51.181 4.598 50.035 4.604 48.891 4.604 C 46.931 4.604 44.182 4.589 42.324 4.466 C 39.571 2.394 36.302 1.233 32.679 1.124 C 24.954 0.887 18.165 4.188 14.5 9.947 C 13.09 11.338 10.381 12.88 9.471 13.083 C 9.049 13.176 8.732 13.459 8.619 13.838 C 8.507 14.223 8.628 14.643 8.944 14.963 C 9.233 15.255 9.835 15.619 11.04 15.619 C 11.688 15.619 12.513 15.511 13.554 15.233 C 13.946 16.119 14.62 16.683 15.169 16.927 C 16.481 17.51 20.745 15.82 22.425 13.488 C 23.726 14.178 25.079 14.442 26.449 14.439 C 25.499 14.872 24.633 15.404 23.909 16.041 C 22.169 17.572 22.101 18.824 22.35 19.605 C 22.703 20.714 23.943 21.537 25.507 21.702 C 26.525 21.809 27.834 21.518 29.349 21.182 C 31.348 20.739 33.615 20.236 35.514 20.629 C 38.339 21.213 48.398 12.148 47.806 11.039 C 48.992 11.436 49.992 11.566 50.778 11.566 C 51.484 11.566 52.169 11.467 52.816 11.273 C 56.971 10.027 58.709 6.957 58.679 5.666 C 58.668 5.157 58.413 4.791 57.999 4.688 Z M 13.269 14.206 C 10.886 14.843 10.007 14.433 9.791 14.287 C 9.673 14.207 9.641 14.148 9.636 14.15 C 9.637 14.15 9.652 14.133 9.702 14.122 C 10.501 13.944 12.071 13.115 13.463 12.147 C 13.223 12.965 13.195 13.654 13.269 14.206 Z M 46.2 10.375 C 47.047 11.751 39.17 20.298 35.73 19.586 C 33.607 19.147 31.222 19.676 29.118 20.143 C 27.753 20.446 26.465 20.731 25.618 20.643 C 24.492 20.525 23.586 19.977 23.364 19.282 C 23.149 18.605 23.592 17.738 24.613 16.84 C 27.589 14.222 33.119 13.433 37.201 15.043 C 37.475 15.152 37.784 15.017 37.892 14.744 C 38 14.47 37.866 14.161 37.593 14.053 C 35.933 13.399 34.05 13.113 32.173 13.162 C 32.248 13.036 32.272 12.881 32.224 12.73 C 32.134 12.45 31.836 12.296 31.554 12.385 C 28.715 13.293 25.441 14.112 22.528 12.321 C 22.404 12.245 22.255 12.223 22.113 12.26 C 21.972 12.297 21.853 12.39 21.782 12.518 C 20.542 14.772 16.272 16.253 15.601 15.954 C 15.205 15.778 14.658 15.294 14.419 14.509 C 14.091 13.432 14.418 12.071 15.362 10.574 C 18.815 5.1 25.276 1.965 32.647 2.188 C 35.613 2.278 38.329 3.125 40.695 4.639 C 40.54 4.741 40.428 4.878 40.364 5.053 C 40.286 5.271 40.045 5.935 41.79 7.387 L 41.917 7.496 C 43.495 8.84 44.927 9.755 46.2 10.375 Z M 57.333 6.618 C 56.706 7.864 55.109 9.474 52.51 10.253 C 51.962 10.418 51.38 10.501 50.778 10.501 C 49.093 10.501 46.308 9.839 42.609 6.686 L 42.471 6.57 C 41.928 6.117 41.587 5.72 41.448 5.493 C 41.542 5.485 41.687 5.485 41.851 5.498 C 43.734 5.651 46.771 5.669 48.891 5.669 C 50.037 5.669 51.185 5.663 52.26 5.658 C 53.204 5.653 54.093 5.648 54.874 5.648 C 56.341 5.648 57.261 5.666 57.615 5.702 C 57.615 5.846 57.567 6.152 57.333 6.618 Z" id="left-body-outline" fill="#333"></path>
        <path d="M21.3021302,9.69880645 C20.4553846,10.3336129 20.7106509,11.1185161 21.6571598,11.2366774 C22.6040237,11.3548387 22.6778698,11.4176452 23.5508876,10.7633226 C24.4973964,10.0536452 24.6159763,8.8706129 23.5508876,8.98912903 C22.4857988,9.10764516 21.7757396,9.34396774 21.3021302,9.69880645" id="nose" fill="#333"></path>
        <path d="M18.8169231,10.1721613 C18.8169231,10.760129 18.3401183,11.2366774 17.7518343,11.2366774 C17.1639053,11.2366774 16.6867456,10.760129 16.6867456,10.1721613 C16.6867456,9.58419355 17.1639053,9.10764516 17.7518343,9.10764516 C18.3401183,9.10764516 18.8169231,9.58419355 18.8169231,10.1721613" id="eye-left" fill="#333"></path>
        <path d="M31.1247337,7.21529032 C31.1247337,7.80325806 30.647929,8.27980645 30.059645,8.27980645 C29.4713609,8.27980645 28.9945562,7.80325806 28.9945562,7.21529032 C28.9945562,6.62732258 29.4713609,6.15077419 30.059645,6.15077419 C30.647929,6.15077419 31.1247337,6.62732258 31.1247337,7.21529032" id="eye-right" fill="#333"></path>
    </g>
</svg>


